# xmcd CD database file
#
# Track frame offsets:
#	150
#	19351
#	43840
#	67540
#	84643
#	106995
#	135645
#	157096
#	177496
#	193997
#	216948
#
# Disc length: 3130 seconds
#
# Revision: 0
# Processed by: cddbd v1.5.2PL0 Copyright (c) Steve Scherf et al.
# Submitted via: CDex 1.51
#
DISCID=9f0c380b
DTITLE=Heinz V. Hermann - Napo And The Giant Flute
DYEAR=2001
DGENRE=Jazz
TTITLE0=Three And One
TTITLE1=The Gypsy
TTITLE2=Come Rain Or Come Shine
TTITLE3=Gee Baby Ain't I Good To You
TTITLE4=You Stepped On My Flute
TTITLE5=Crocus
TTITLE6=How Deep Is The Ocean
TTITLE7=Limehouse Blues
TTITLE8=Joshua
TTITLE9=How About You
TTITLE10=Giant Flute
EXTD=YEAR: 2001
EXTT0=
EXTT1=
EXTT2=
EXTT3=
EXTT4=
EXTT5=
EXTT6=
EXTT7=
EXTT8=
EXTT9=
EXTT10=
PLAYORDER=
